<svg xmlns="http://www.w3.org/2000/svg" viewBox="0 0 326.2 39.51"><defs><style>.cls-1{fill:#46c7f1;}.cls-2{fill:#fff;}</style></defs><title>Asset 11</title><g id="Layer_2" data-name="Layer 2"><g id="Layer_1-2" data-name="Layer 1"><path id="_Path_" data-name="&lt;Path&gt;" class="cls-1" d="M19.57,33.26A3.1,3.1,0,0,0,16.82,35l-.07.13-.14,0a5.61,5.61,0,0,1-2.35-1.36,4.85,4.85,0,0,1-1.41-2.29,5.74,5.74,0,0,1,1.39-5.84.19.19,0,0,1,0-.08l0,0a1.31,1.31,0,0,0,0-1.81,1.3,1.3,0,0,0-1.84,0,5.77,5.77,0,0,1-6,1.37,6.29,6.29,0,0,1-2.86-2.18,5.73,5.73,0,0,1,.62-7.29,6.56,6.56,0,0,1,2.19-1.41A5.78,5.78,0,0,1,9.93,14a5.67,5.67,0,0,1,2.27,1.28,1.31,1.31,0,0,1,.14.19.93.93,0,0,0,.11.14,1.3,1.3,0,0,0,1.84,0,1.27,1.27,0,0,0,.35-1,1.29,1.29,0,0,0-.35-1l-.1-.08,0-.07,0,.06-.13-.1a5.72,5.72,0,0,1-1.17-5.56,1.3,1.3,0,0,0-2.47-.81,8.33,8.33,0,0,0-.23,4.13l0,.25L10,11.41a8.3,8.3,0,0,0-4.42.25,9.17,9.17,0,0,0-3.12,2,8.39,8.39,0,0,0-1,10.68,9.12,9.12,0,0,0,4.06,3.12,8.41,8.41,0,0,0,2.83.49,7.4,7.4,0,0,0,1.41-.18l.44-.08-.05.26a8.18,8.18,0,0,0,.19,4.21,7.36,7.36,0,0,0,2.07,3.42,8.36,8.36,0,0,0,4.38,2.3h.08l0,.07a3.08,3.08,0,0,0,2.65,1.58,3.13,3.13,0,1,0,0-6.25Z"/><path id="_Path_2" data-name="&lt;Path&gt;" class="cls-1" d="M36.27,14.8a9.11,9.11,0,0,0-4.06-3.12,8.24,8.24,0,0,0-4.43-.26l-.25.05,0-.25a8.07,8.07,0,0,0-.21-4A7.39,7.39,0,0,0,25.3,3.77a8.34,8.34,0,0,0-4.52-2.32h-.07l0-.06A3.06,3.06,0,0,0,18.15,0,3.13,3.13,0,1,0,21,4.38l.07-.15.15.05a5.62,5.62,0,0,1,2.24,1.32,4.91,4.91,0,0,1,1.41,2.3,5.71,5.71,0,0,1-1.16,5.54l-.15.11-.11.08a1.27,1.27,0,0,0-.35,1,1.29,1.29,0,0,0,2.2,1l.1-.13a1.53,1.53,0,0,1,.13-.18A5.7,5.7,0,0,1,27.82,14a5.78,5.78,0,0,1,3.46.1,6.3,6.3,0,0,1,2.86,2.18,5.72,5.72,0,0,1-.62,7.29A6.54,6.54,0,0,1,31.33,25a5.82,5.82,0,0,1-3.51.13,5.75,5.75,0,0,1-2.52-1.48l-2.53-2.53,0-.1a3,3,0,0,0,.19-.93A3.29,3.29,0,1,0,20.86,23l.1,0,.07.08,2.32,2.32a.39.39,0,0,1,.08.15v0a5.73,5.73,0,0,1,1.4,5.86,1.28,1.28,0,0,0,.08,1,1.29,1.29,0,0,0,.76.65,1.25,1.25,0,0,0,.4.07,1.3,1.3,0,0,0,1.24-.9,8.39,8.39,0,0,0,.21-4.32l-.05-.26.31.06a8.13,8.13,0,0,0,1.61.22,8.26,8.26,0,0,0,2.8-.49,9.1,9.1,0,0,0,3.12-2A8.38,8.38,0,0,0,36.27,14.8Z"/><path class="cls-2" d="M55.52,22.34a.55.55,0,0,1,.42.19L57.1,23.8a6.4,6.4,0,0,1-2.38,1.84,8.2,8.2,0,0,1-3.39.64,8,8,0,0,1-3.18-.6A7,7,0,0,1,45.73,24a7.37,7.37,0,0,1-1.53-2.57,9.67,9.67,0,0,1-.53-3.27,8.79,8.79,0,0,1,.59-3.28,7.42,7.42,0,0,1,4.25-4.25,8.87,8.87,0,0,1,3.32-.6,7.84,7.84,0,0,1,3.1.57,7.25,7.25,0,0,1,2.27,1.5l-1,1.38a.9.9,0,0,1-.23.23.64.64,0,0,1-.38.1.87.87,0,0,1-.52-.2,6.38,6.38,0,0,0-.67-.43,5.5,5.5,0,0,0-1-.43,5.95,5.95,0,0,0-3.64.19A4.57,4.57,0,0,0,48.12,14a5.13,5.13,0,0,0-1.06,1.77,6.78,6.78,0,0,0-.38,2.34,7,7,0,0,0,.38,2.39,5.24,5.24,0,0,0,1,1.76,4.39,4.39,0,0,0,1.53,1.09,4.73,4.73,0,0,0,1.89.38,8.25,8.25,0,0,0,1.09-.07,4.7,4.7,0,0,0,.9-.21,4,4,0,0,0,.78-.37,4.82,4.82,0,0,0,.73-.55,1.06,1.06,0,0,1,.23-.16A.59.59,0,0,1,55.52,22.34Z"/><path class="cls-2" d="M59.18,26.1V14.81h1.59a.86.86,0,0,1,.58.15.89.89,0,0,1,.22.53l.17,1.36a5.36,5.36,0,0,1,1.42-1.65A3,3,0,0,1,65,14.6a2.36,2.36,0,0,1,1.39.39L66,17a.42.42,0,0,1-.14.28.49.49,0,0,1-.3.08,1.84,1.84,0,0,1-.45-.08,3,3,0,0,0-.76-.08,2.31,2.31,0,0,0-1.45.47,3.6,3.6,0,0,0-1,1.37v7Z"/><path class="cls-2" d="M72.17,29.2a1.06,1.06,0,0,1-.31.43,1,1,0,0,1-.59.15h-2l2.11-4.52L66.79,14.81h2.38a.75.75,0,0,1,.51.15,1,1,0,0,1,.26.35l2.41,5.85a5.17,5.17,0,0,1,.21.59q.09.31.15.62.09-.32.19-.62c.07-.2.14-.4.23-.6l2.27-5.84a.79.79,0,0,1,.29-.36.77.77,0,0,1,.46-.14h2.18Z"/><path class="cls-2" d="M79.91,29.78v-15h1.66a.82.82,0,0,1,.45.12.57.57,0,0,1,.24.37l.22,1A5.69,5.69,0,0,1,84,15.08a4.26,4.26,0,0,1,2.07-.48,3.7,3.7,0,0,1,1.69.39,3.8,3.8,0,0,1,1.32,1.12,5.35,5.35,0,0,1,.86,1.8,9.06,9.06,0,0,1,.3,2.46,7.73,7.73,0,0,1-.34,2.34,5.74,5.74,0,0,1-1,1.87,4.51,4.51,0,0,1-1.53,1.24,4.45,4.45,0,0,1-2,.45A4,4,0,0,1,83.82,26a4,4,0,0,1-1.19-.81v4.62Zm5.28-13a2.78,2.78,0,0,0-1.45.36,4.19,4.19,0,0,0-1.12,1v5.06a2.58,2.58,0,0,0,1,.8,3,3,0,0,0,1.17.23A2.63,2.63,0,0,0,85.92,24a2.18,2.18,0,0,0,.85-.7,3.5,3.5,0,0,0,.53-1.19,6.8,6.8,0,0,0,.19-1.7,7.53,7.53,0,0,0-.16-1.68,3.24,3.24,0,0,0-.46-1.12,1.8,1.8,0,0,0-.72-.63A2.23,2.23,0,0,0,85.19,16.75Z"/><path class="cls-2" d="M96.05,26.27a3,3,0,0,1-2.25-.83A3.19,3.19,0,0,1,93,23.15v-6.3H91.86a.52.52,0,0,1-.54-.57V15.19l1.82-.3.57-3.08a.54.54,0,0,1,.2-.34.65.65,0,0,1,.4-.12h1.41v3.55h3v1.94h-3V23a1.2,1.2,0,0,0,.26.83.89.89,0,0,0,.7.3,1.29,1.29,0,0,0,.42-.06l.3-.13.23-.13a.38.38,0,0,1,.2-.06.31.31,0,0,1,.2.06.89.89,0,0,1,.17.18L99,25.27a4.1,4.1,0,0,1-1.36.75A5.07,5.07,0,0,1,96.05,26.27Z"/><path class="cls-2" d="M105.68,14.63A6.18,6.18,0,0,1,108,15a5,5,0,0,1,1.75,1.16A5.13,5.13,0,0,1,110.85,18a7.57,7.57,0,0,1,0,4.83,5.24,5.24,0,0,1-1.12,1.84A4.86,4.86,0,0,1,108,25.85a6.68,6.68,0,0,1-4.59,0,4.9,4.9,0,0,1-1.77-1.17,5.25,5.25,0,0,1-1.13-1.84,7.46,7.46,0,0,1,0-4.83,5.14,5.14,0,0,1,1.13-1.83A5,5,0,0,1,103.38,15,6.23,6.23,0,0,1,105.68,14.63Zm0,9.54a2.39,2.39,0,0,0,2.08-.95,4.74,4.74,0,0,0,.68-2.77,4.8,4.8,0,0,0-.68-2.78,2.38,2.38,0,0,0-2.08-1,2.41,2.41,0,0,0-2.11,1,4.77,4.77,0,0,0-.68,2.78,4.72,4.72,0,0,0,.68,2.77A2.42,2.42,0,0,0,105.68,24.17Z"/><path class="cls-2" d="M125.07,23.92a6.91,6.91,0,0,0,3.16-.68V20.34h-2a.62.62,0,0,1-.45-.16.52.52,0,0,1-.17-.39V18.12h5.29v6.43a8.63,8.63,0,0,1-1.26.76,8,8,0,0,1-1.4.53,10.63,10.63,0,0,1-1.59.31,14.81,14.81,0,0,1-1.83.1,8.3,8.3,0,0,1-3.2-.6,7.51,7.51,0,0,1-4.2-4.26,8.71,8.71,0,0,1-.6-3.27,9,9,0,0,1,.58-3.29,7.25,7.25,0,0,1,4.26-4.25,9.4,9.4,0,0,1,3.43-.59,8.93,8.93,0,0,1,3.37.58,7.76,7.76,0,0,1,2.42,1.5L130,13.43a.76.76,0,0,1-.67.41,1,1,0,0,1-.54-.18l-.72-.42a4.82,4.82,0,0,0-.81-.36,6.7,6.7,0,0,0-1-.25,7.44,7.44,0,0,0-1.28-.1,5.5,5.5,0,0,0-2.13.4,4.51,4.51,0,0,0-1.62,1.13,5.1,5.1,0,0,0-1,1.77,6.93,6.93,0,0,0-.36,2.31,7.22,7.22,0,0,0,.38,2.45,5.14,5.14,0,0,0,1.08,1.81A4.63,4.63,0,0,0,123,23.53,5.47,5.47,0,0,0,125.07,23.92Z"/><path class="cls-2" d="M142.36,26.1h-1.22a1.31,1.31,0,0,1-.61-.12.74.74,0,0,1-.33-.47l-.24-.8a9.4,9.4,0,0,1-.84.68,5.13,5.13,0,0,1-.85.49,4.34,4.34,0,0,1-.94.3,5.58,5.58,0,0,1-1.1.1,4.35,4.35,0,0,1-1.32-.19,2.85,2.85,0,0,1-1-.58,2.63,2.63,0,0,1-.68-1A3.42,3.42,0,0,1,133,23.2a2.64,2.64,0,0,1,.34-1.26,3.16,3.16,0,0,1,1.12-1.13,7.12,7.12,0,0,1,2.08-.83,13.28,13.28,0,0,1,3.22-.33V19a2.52,2.52,0,0,0-.48-1.69,1.74,1.74,0,0,0-1.39-.55,3.34,3.34,0,0,0-1.1.15,4.3,4.3,0,0,0-.76.35l-.6.35a1.22,1.22,0,0,1-.6.15.78.78,0,0,1-.47-.14,1.1,1.1,0,0,1-.32-.35l-.5-.87a6.71,6.71,0,0,1,4.7-1.78,4.53,4.53,0,0,1,1.77.33,3.75,3.75,0,0,1,1.31.9,3.88,3.88,0,0,1,.82,1.38,5.32,5.32,0,0,1,.28,1.76Zm-5.28-1.69a3.65,3.65,0,0,0,.77-.08,2.94,2.94,0,0,0,.67-.23,3.55,3.55,0,0,0,.61-.37,5.44,5.44,0,0,0,.59-.53V21.31a10.94,10.94,0,0,0-2,.15,5.24,5.24,0,0,0-1.28.38,1.65,1.65,0,0,0-.69.54,1.21,1.21,0,0,0-.2.68,1.19,1.19,0,0,0,.42,1A1.83,1.83,0,0,0,137.08,24.4Z"/><path class="cls-2" d="M145,26.1V14.81h1.66a.67.67,0,0,1,.69.5l.18.84a6.34,6.34,0,0,1,.62-.6,4,4,0,0,1,.69-.47,3.74,3.74,0,0,1,.79-.31,3.56,3.56,0,0,1,.93-.12,2.63,2.63,0,0,1,1.75.58,3.48,3.48,0,0,1,1,1.53,3.45,3.45,0,0,1,.66-1,3.61,3.61,0,0,1,.87-.65,4,4,0,0,1,1-.37,4.87,4.87,0,0,1,1.07-.12,4.51,4.51,0,0,1,1.66.29,3.19,3.19,0,0,1,1.22.84,3.7,3.7,0,0,1,.75,1.34,5.86,5.86,0,0,1,.26,1.82V26.1h-2.72V18.91a2.42,2.42,0,0,0-.47-1.62,1.74,1.74,0,0,0-1.39-.54,2.08,2.08,0,0,0-.78.14,1.85,1.85,0,0,0-.63.41,1.88,1.88,0,0,0-.42.68,2.61,2.61,0,0,0-.15.94V26.1H151.6V18.91a2.46,2.46,0,0,0-.46-1.65,1.7,1.7,0,0,0-1.35-.52,2.18,2.18,0,0,0-1.09.29,3.69,3.69,0,0,0-1,.8V26.1Z"/><path class="cls-2" d="M163.59,26.1V9.75h2.72V16.2a5.36,5.36,0,0,1,1.52-1.14,4.38,4.38,0,0,1,2-.42,3.66,3.66,0,0,1,3,1.49,5.32,5.32,0,0,1,.86,1.79,9,9,0,0,1,.3,2.45,7.76,7.76,0,0,1-.34,2.34,5.75,5.75,0,0,1-1,1.87,4.51,4.51,0,0,1-1.53,1.24,4.45,4.45,0,0,1-2,.45,4,4,0,0,1-.95-.1,3.23,3.23,0,0,1-1.44-.75,5.54,5.54,0,0,1-.58-.6l-.12.76a.69.69,0,0,1-.23.41.7.7,0,0,1-.43.12Zm5.28-9.35a2.77,2.77,0,0,0-1.45.36,4.19,4.19,0,0,0-1.12,1v5.06a2.58,2.58,0,0,0,1,.8,3.05,3.05,0,0,0,1.18.23,2.59,2.59,0,0,0,1.11-.23,2.18,2.18,0,0,0,.84-.7,3.5,3.5,0,0,0,.53-1.19,6.8,6.8,0,0,0,.19-1.7,7.53,7.53,0,0,0-.16-1.68,3.24,3.24,0,0,0-.46-1.12,1.8,1.8,0,0,0-.72-.63A2.24,2.24,0,0,0,168.87,16.75Z"/><path class="cls-2" d="M179,9.75V26.1h-2.72V9.75Z"/><path class="cls-2" d="M185.36,11.52a1.55,1.55,0,0,1-.14.66,1.8,1.8,0,0,1-.94.91,1.7,1.7,0,0,1-.68.14,1.64,1.64,0,0,1-.67-.14,1.76,1.76,0,0,1-.91-.91,1.6,1.6,0,0,1-.14-.66,1.7,1.7,0,0,1,.14-.68,1.73,1.73,0,0,1,.91-.92,1.64,1.64,0,0,1,.67-.14,1.7,1.7,0,0,1,.68.14,1.81,1.81,0,0,1,.56.37,1.79,1.79,0,0,1,.38.55A1.66,1.66,0,0,1,185.36,11.52ZM185,14.81V26.1h-2.72V14.81Z"/><path class="cls-2" d="M188,26.1V14.81h1.66a.67.67,0,0,1,.69.5l.19.89a6.22,6.22,0,0,1,.72-.64,5.07,5.07,0,0,1,.8-.5,4.12,4.12,0,0,1,.91-.32,4.78,4.78,0,0,1,1.06-.11,4,4,0,0,1,1.64.31,3.25,3.25,0,0,1,1.19.88,3.87,3.87,0,0,1,.73,1.35,5.75,5.75,0,0,1,.25,1.73V26.1h-2.72V18.91a2.41,2.41,0,0,0-.48-1.6,1.77,1.77,0,0,0-1.44-.57,2.83,2.83,0,0,0-1.32.32,4.7,4.7,0,0,0-1.17.87V26.1Z"/><path class="cls-2" d="M204.43,14.61a6,6,0,0,1,1.36.15,4.59,4.59,0,0,1,1.17.43h3.25v1a.56.56,0,0,1-.13.4.78.78,0,0,1-.45.2l-1,.19a3.46,3.46,0,0,1,.17.6,3.54,3.54,0,0,1,.06.67,3.36,3.36,0,0,1-.33,1.51,3.4,3.4,0,0,1-.92,1.15,4.28,4.28,0,0,1-1.4.73,5.72,5.72,0,0,1-1.75.26,6.29,6.29,0,0,1-1.24-.12q-.53.32-.53.72a.53.53,0,0,0,.31.5,2.56,2.56,0,0,0,.83.23,9,9,0,0,0,1.16.07q.65,0,1.33.06a10.53,10.53,0,0,1,1.33.19,3.9,3.9,0,0,1,1.16.44,2.33,2.33,0,0,1,.83.81,2.5,2.5,0,0,1,.31,1.32,3.12,3.12,0,0,1-.37,1.46,3.92,3.92,0,0,1-1.07,1.26,5.56,5.56,0,0,1-1.71.89,7.31,7.31,0,0,1-2.31.34,8.89,8.89,0,0,1-2.23-.25,5.2,5.2,0,0,1-1.57-.66,2.85,2.85,0,0,1-.93-1,2.23,2.23,0,0,1-.31-1.12,1.92,1.92,0,0,1,.48-1.33,3.32,3.32,0,0,1,1.34-.86,1.87,1.87,0,0,1-.67-.62,1.79,1.79,0,0,1-.25-1,1.68,1.68,0,0,1,.09-.52,2.1,2.1,0,0,1,.27-.53,2.62,2.62,0,0,1,.46-.5,3.13,3.13,0,0,1,.65-.42,3.56,3.56,0,0,1-1.35-1.23,3.29,3.29,0,0,1-.49-1.8,3.31,3.31,0,0,1,1.27-2.67,4.26,4.26,0,0,1,1.42-.73A6,6,0,0,1,204.43,14.61Zm3,12a.77.77,0,0,0-.2-.55,1.29,1.29,0,0,0-.54-.33,3.92,3.92,0,0,0-.8-.17,8,8,0,0,0-1-.06h-1.06a4.49,4.49,0,0,1-1.05-.12,2.46,2.46,0,0,0-.74.6,1.23,1.23,0,0,0-.28.8,1.1,1.1,0,0,0,.15.55,1.24,1.24,0,0,0,.47.45,2.83,2.83,0,0,0,.84.29,6.53,6.53,0,0,0,1.26.1,6.29,6.29,0,0,0,1.31-.12,3.09,3.09,0,0,0,.91-.33,1.38,1.38,0,0,0,.52-.49A1.23,1.23,0,0,0,207.42,26.57Zm-3-6.39a2.55,2.55,0,0,0,.88-.14,1.72,1.72,0,0,0,.62-.38,1.56,1.56,0,0,0,.37-.58,2.14,2.14,0,0,0,.13-.75,1.77,1.77,0,0,0-.5-1.33,2.54,2.54,0,0,0-3,0,1.77,1.77,0,0,0-.5,1.33,2.11,2.11,0,0,0,.13.74,1.61,1.61,0,0,0,.37.59,1.67,1.67,0,0,0,.63.38A2.56,2.56,0,0,0,204.43,20.18Z"/><path class="cls-2" d="M226.35,10.19v2.35h-7.05v4.71h6v2.37h-6V26.1h-3V10.19Z"/><path class="cls-2" d="M232.63,14.63a6.18,6.18,0,0,1,2.29.41,5,5,0,0,1,1.75,1.16A5.13,5.13,0,0,1,237.8,18a7.57,7.57,0,0,1,0,4.83,5.24,5.24,0,0,1-1.12,1.84,4.86,4.86,0,0,1-1.75,1.17,6.68,6.68,0,0,1-4.59,0,4.9,4.9,0,0,1-1.77-1.17,5.25,5.25,0,0,1-1.13-1.84,7.46,7.46,0,0,1,0-4.83,5.14,5.14,0,0,1,1.13-1.83A5,5,0,0,1,230.33,15,6.23,6.23,0,0,1,232.63,14.63Zm0,9.54a2.39,2.39,0,0,0,2.08-.95,4.74,4.74,0,0,0,.68-2.77,4.8,4.8,0,0,0-.68-2.78,2.38,2.38,0,0,0-2.08-1,2.41,2.41,0,0,0-2.11,1,4.77,4.77,0,0,0-.68,2.78,4.72,4.72,0,0,0,.68,2.77A2.42,2.42,0,0,0,232.63,24.17Z"/><path class="cls-2" d="M242.8,14.81V22a2.41,2.41,0,0,0,.48,1.6,1.77,1.77,0,0,0,1.44.57,2.86,2.86,0,0,0,1.32-.31A4.58,4.58,0,0,0,247.2,23V14.81h2.72V26.1h-1.66a.67.67,0,0,1-.69-.5l-.19-.9a7.91,7.91,0,0,1-.73.64,4.38,4.38,0,0,1-.8.5,4.48,4.48,0,0,1-.91.32,4.55,4.55,0,0,1-1,.12,4,4,0,0,1-1.63-.31,3.27,3.27,0,0,1-1.19-.88,3.87,3.87,0,0,1-.73-1.36,5.75,5.75,0,0,1-.25-1.73V14.81Z"/><path class="cls-2" d="M252.82,26.1V14.81h1.66a.67.67,0,0,1,.69.5l.19.89a6.22,6.22,0,0,1,.72-.64,5.07,5.07,0,0,1,.8-.5,4.12,4.12,0,0,1,.91-.32,4.78,4.78,0,0,1,1.06-.11,4,4,0,0,1,1.64.31,3.25,3.25,0,0,1,1.19.88,3.87,3.87,0,0,1,.73,1.35,5.75,5.75,0,0,1,.25,1.73V26.1h-2.72V18.91a2.41,2.41,0,0,0-.48-1.6,1.77,1.77,0,0,0-1.44-.57,2.83,2.83,0,0,0-1.32.32,4.7,4.7,0,0,0-1.17.87V26.1Z"/><path class="cls-2" d="M273.27,26.1a.67.67,0,0,1-.69-.5l-.22-1.09a6.66,6.66,0,0,1-.74.71,4.65,4.65,0,0,1-.83.55,4.38,4.38,0,0,1-1,.36,4.61,4.61,0,0,1-1.11.13,3.73,3.73,0,0,1-1.69-.38,3.78,3.78,0,0,1-1.33-1.12,5.35,5.35,0,0,1-.86-1.81,9.12,9.12,0,0,1-.3-2.46,7.69,7.69,0,0,1,.34-2.33,5.66,5.66,0,0,1,1-1.87A4.56,4.56,0,0,1,267.4,15a4.41,4.41,0,0,1,2-.45,3.92,3.92,0,0,1,1.62.3,4.25,4.25,0,0,1,1.2.81v-6h2.72V26.1Zm-3.62-2a2.78,2.78,0,0,0,1.44-.35,4.26,4.26,0,0,0,1.12-1V17.69a2.66,2.66,0,0,0-1-.79,3,3,0,0,0-1.17-.23,2.62,2.62,0,0,0-1.12.23,2.18,2.18,0,0,0-.85.7,3.44,3.44,0,0,0-.53,1.19,6.81,6.81,0,0,0-.19,1.7,7.53,7.53,0,0,0,.16,1.68,3.29,3.29,0,0,0,.46,1.12,1.74,1.74,0,0,0,.73.63A2.3,2.3,0,0,0,269.65,24.1Z"/><path class="cls-2" d="M286.71,26.1h-1.22a1.31,1.31,0,0,1-.61-.12.74.74,0,0,1-.33-.47l-.24-.8a9.4,9.4,0,0,1-.84.68,5.13,5.13,0,0,1-.85.49,4.34,4.34,0,0,1-.94.3,5.58,5.58,0,0,1-1.1.1,4.35,4.35,0,0,1-1.32-.19,2.85,2.85,0,0,1-1-.58,2.63,2.63,0,0,1-.68-1,3.42,3.42,0,0,1-.24-1.33,2.64,2.64,0,0,1,.34-1.26,3.16,3.16,0,0,1,1.12-1.13,7.12,7.12,0,0,1,2.08-.83,13.28,13.28,0,0,1,3.22-.33V19a2.52,2.52,0,0,0-.48-1.69,1.74,1.74,0,0,0-1.39-.55,3.34,3.34,0,0,0-1.1.15,4.3,4.3,0,0,0-.76.35l-.6.35a1.22,1.22,0,0,1-.6.15.78.78,0,0,1-.47-.14,1.1,1.1,0,0,1-.32-.35l-.5-.87a6.71,6.71,0,0,1,4.7-1.78,4.53,4.53,0,0,1,1.77.33,3.75,3.75,0,0,1,1.31.9,3.88,3.88,0,0,1,.82,1.38,5.32,5.32,0,0,1,.28,1.76Zm-5.28-1.69a3.65,3.65,0,0,0,.77-.08,2.94,2.94,0,0,0,.67-.23,3.55,3.55,0,0,0,.61-.37,5.44,5.44,0,0,0,.59-.53V21.31a10.94,10.94,0,0,0-2,.15,5.24,5.24,0,0,0-1.28.38,1.65,1.65,0,0,0-.69.54,1.21,1.21,0,0,0-.2.68,1.19,1.19,0,0,0,.42,1A1.83,1.83,0,0,0,281.43,24.4Z"/><path class="cls-2" d="M293.09,26.27a3,3,0,0,1-2.25-.83,3.19,3.19,0,0,1-.79-2.29v-6.3H288.9a.52.52,0,0,1-.54-.57V15.19l1.82-.3.57-3.08a.54.54,0,0,1,.2-.34.65.65,0,0,1,.4-.12h1.41v3.55h3v1.94h-3V23a1.2,1.2,0,0,0,.26.83.89.89,0,0,0,.7.3,1.29,1.29,0,0,0,.42-.06l.3-.13.23-.13a.38.38,0,0,1,.2-.06.31.31,0,0,1,.2.06.89.89,0,0,1,.17.18l.81,1.32a4.1,4.1,0,0,1-1.36.75A5.07,5.07,0,0,1,293.09,26.27Z"/><path class="cls-2" d="M301.2,11.52a1.55,1.55,0,0,1-.14.66,1.8,1.8,0,0,1-.94.91,1.7,1.7,0,0,1-.68.14,1.64,1.64,0,0,1-.67-.14,1.76,1.76,0,0,1-.91-.91,1.6,1.6,0,0,1-.14-.66,1.7,1.7,0,0,1,.14-.68,1.73,1.73,0,0,1,.91-.92,1.64,1.64,0,0,1,.67-.14,1.7,1.7,0,0,1,.68.14,1.81,1.81,0,0,1,.56.37,1.79,1.79,0,0,1,.38.55A1.66,1.66,0,0,1,301.2,11.52Zm-.41,3.29V26.1h-2.72V14.81Z"/><path class="cls-2" d="M308.68,14.63A6.18,6.18,0,0,1,311,15a5,5,0,0,1,1.75,1.16A5.13,5.13,0,0,1,313.85,18a7.57,7.57,0,0,1,0,4.83,5.24,5.24,0,0,1-1.12,1.84A4.86,4.86,0,0,1,311,25.85a6.68,6.68,0,0,1-4.59,0,4.9,4.9,0,0,1-1.77-1.17,5.25,5.25,0,0,1-1.13-1.84,7.46,7.46,0,0,1,0-4.83,5.14,5.14,0,0,1,1.13-1.83A5,5,0,0,1,306.38,15,6.23,6.23,0,0,1,308.68,14.63Zm0,9.54a2.39,2.39,0,0,0,2.08-.95,4.74,4.74,0,0,0,.68-2.77,4.8,4.8,0,0,0-.68-2.78,2.38,2.38,0,0,0-2.08-1,2.41,2.41,0,0,0-2.11,1,4.77,4.77,0,0,0-.68,2.78,4.72,4.72,0,0,0,.68,2.77A2.42,2.42,0,0,0,308.68,24.17Z"/><path class="cls-2" d="M316.37,26.1V14.81H318a.67.67,0,0,1,.69.5l.19.89a6.22,6.22,0,0,1,.72-.64,5.07,5.07,0,0,1,.8-.5,4.12,4.12,0,0,1,.91-.32,4.78,4.78,0,0,1,1.06-.11,4,4,0,0,1,1.64.31,3.25,3.25,0,0,1,1.19.88,3.87,3.87,0,0,1,.73,1.35,5.75,5.75,0,0,1,.25,1.73V26.1h-2.72V18.91a2.41,2.41,0,0,0-.48-1.6,1.77,1.77,0,0,0-1.44-.57,2.83,2.83,0,0,0-1.32.32,4.7,4.7,0,0,0-1.17.87V26.1Z"/></g></g></svg>